<svg xmlns="http://www.w3.org/2000/svg" xmlns:xlink="http://www.w3.org/1999/xlink" width="500" zoomAndPan="magnify" viewBox="0 0 375 374.999991" height="500" preserveAspectRatio="xMidYMid meet" version="1.0"><defs><g/><clipPath id="1409bfcdbc"><path d="M 146.496094 125.730469 L 224.496094 125.730469 L 224.496094 204 L 146.496094 204 Z M 146.496094 125.730469 " clip-rule="nonzero"/></clipPath><clipPath id="8560043a81"><path d="M 155 140 L 197 140 L 197 209.730469 L 155 209.730469 Z M 155 140 " clip-rule="nonzero"/></clipPath></defs><g clip-path="url(#1409bfcdbc)"><path fill="#ffe9e9" d="M 224.332031 164.664062 C 224.332031 165.941406 224.269531 167.210938 224.144531 168.480469 C 224.019531 169.75 223.832031 171.007812 223.582031 172.257812 C 223.335938 173.507812 223.023438 174.742188 222.65625 175.964844 C 222.285156 177.183594 221.855469 178.382812 221.367188 179.558594 C 220.878906 180.738281 220.335938 181.886719 219.734375 183.011719 C 219.132812 184.136719 218.480469 185.226562 217.773438 186.289062 C 217.0625 187.347656 216.304688 188.371094 215.496094 189.355469 C 214.6875 190.339844 213.832031 191.285156 212.933594 192.183594 C 212.03125 193.085938 211.085938 193.941406 210.101562 194.75 C 209.117188 195.558594 208.09375 196.316406 207.035156 197.023438 C 205.976562 197.734375 204.882812 198.386719 203.757812 198.988281 C 202.632812 199.589844 201.484375 200.132812 200.304688 200.621094 C 199.128906 201.109375 197.929688 201.539062 196.710938 201.90625 C 195.492188 202.277344 194.253906 202.585938 193.003906 202.835938 C 191.753906 203.085938 190.496094 203.269531 189.226562 203.394531 C 187.960938 203.519531 186.6875 203.582031 185.414062 203.582031 C 184.136719 203.582031 182.867188 203.519531 181.597656 203.394531 C 180.328125 203.269531 179.070312 203.085938 177.820312 202.835938 C 176.570312 202.585938 175.335938 202.277344 174.117188 201.90625 C 172.894531 201.539062 171.695312 201.109375 170.519531 200.621094 C 169.34375 200.132812 168.191406 199.589844 167.066406 198.988281 C 165.941406 198.386719 164.851562 197.734375 163.792969 197.023438 C 162.730469 196.316406 161.707031 195.558594 160.722656 194.75 C 159.738281 193.941406 158.796875 193.085938 157.894531 192.183594 C 156.992188 191.285156 156.136719 190.339844 155.328125 189.355469 C 154.519531 188.371094 153.761719 187.347656 153.054688 186.289062 C 152.34375 185.226562 151.691406 184.136719 151.089844 183.011719 C 150.488281 181.886719 149.945312 180.738281 149.457031 179.558594 C 148.96875 178.382812 148.539062 177.183594 148.171875 175.964844 C 147.800781 174.742188 147.492188 173.507812 147.242188 172.257812 C 146.992188 171.007812 146.808594 169.75 146.683594 168.480469 C 146.558594 167.210938 146.496094 165.941406 146.496094 164.664062 C 146.496094 163.390625 146.558594 162.121094 146.683594 160.851562 C 146.808594 159.582031 146.992188 158.324219 147.242188 157.074219 C 147.492188 155.824219 147.800781 154.589844 148.171875 153.367188 C 148.539062 152.148438 148.96875 150.949219 149.457031 149.773438 C 149.945312 148.59375 150.488281 147.445312 151.089844 146.320312 C 151.691406 145.195312 152.34375 144.105469 153.054688 143.042969 C 153.761719 141.984375 154.519531 140.960938 155.328125 139.976562 C 156.136719 138.992188 156.992188 138.046875 157.894531 137.144531 C 158.796875 136.246094 159.738281 135.390625 160.722656 134.582031 C 161.707031 133.773438 162.730469 133.015625 163.792969 132.304688 C 164.851562 131.597656 165.941406 130.945312 167.066406 130.34375 C 168.191406 129.742188 169.34375 129.199219 170.519531 128.710938 C 171.695312 128.222656 172.894531 127.792969 174.117188 127.421875 C 175.335938 127.054688 176.570312 126.742188 177.820312 126.496094 C 179.070312 126.246094 180.328125 126.058594 181.597656 125.933594 C 182.867188 125.808594 184.136719 125.746094 185.414062 125.746094 C 186.6875 125.746094 187.960938 125.808594 189.226562 125.933594 C 190.496094 126.058594 191.753906 126.246094 193.003906 126.496094 C 194.253906 126.742188 195.492188 127.054688 196.710938 127.421875 C 197.929688 127.792969 199.128906 128.222656 200.304688 128.710938 C 201.484375 129.199219 202.632812 129.742188 203.757812 130.34375 C 204.882812 130.945312 205.976562 131.597656 207.035156 132.304688 C 208.09375 133.015625 209.117188 133.773438 210.101562 134.582031 C 211.085938 135.390625 212.03125 136.246094 212.933594 137.144531 C 213.832031 138.046875 214.6875 138.992188 215.496094 139.976562 C 216.304688 140.960938 217.0625 141.984375 217.773438 143.042969 C 218.480469 144.105469 219.132812 145.195312 219.734375 146.320312 C 220.335938 147.445312 220.878906 148.59375 221.367188 149.773438 C 221.855469 150.949219 222.285156 152.148438 222.65625 153.367188 C 223.023438 154.589844 223.335938 155.824219 223.582031 157.074219 C 223.832031 158.324219 224.019531 159.582031 224.144531 160.851562 C 224.269531 162.121094 224.332031 163.390625 224.332031 164.664062 Z M 224.332031 164.664062 " fill-opacity="1" fill-rule="nonzero"/></g><path fill="#975831" d="M 219.179688 165.476562 C 216.71875 160.734375 213.425781 156.316406 209.703125 152.191406 C 207.484375 149.730469 203.175781 143.253906 198.175781 145.566406 C 194.394531 147.308594 194.699219 153.332031 194.335938 156.242188 C 193.960938 159.25 193.683594 162.277344 193.023438 165.257812 C 193.304688 165.855469 193.589844 166.457031 193.871094 167.046875 C 194.1875 167.714844 194.519531 168.40625 194.832031 169.085938 C 196.023438 171.65625 197.214844 174.621094 197.695312 177.675781 C 198.25 179.394531 199.148438 181.027344 200.375 182.480469 C 202.101562 184.53125 204.417969 186.210938 206.191406 188.234375 C 207.964844 190.261719 209.199219 192.839844 208.367188 195.324219 C 207.929688 192.945312 206.046875 190.964844 203.972656 189.304688 C 201.894531 187.648438 199.558594 186.183594 197.835938 184.277344 C 197.71875 184.148438 197.613281 184.019531 197.5 183.890625 C 197.40625 184.269531 197.289062 184.644531 197.152344 185.015625 C 197.148438 185.023438 197.140625 185.042969 197.140625 185.054688 C 197.082031 185.222656 197.019531 185.382812 196.945312 185.546875 C 196.933594 185.574219 196.925781 185.601562 196.914062 185.628906 C 196.835938 185.820312 196.75 186.003906 196.660156 186.1875 C 196.578125 186.363281 196.488281 186.53125 196.398438 186.699219 C 196.371094 186.746094 196.34375 186.796875 196.3125 186.847656 C 196.246094 186.972656 196.175781 187.089844 196.101562 187.210938 C 196.066406 187.261719 196.039062 187.3125 196.007812 187.367188 C 195.910156 187.523438 195.8125 187.683594 195.703125 187.839844 C 195.675781 187.878906 195.648438 187.917969 195.621094 187.960938 C 195.542969 188.078125 195.457031 188.191406 195.378906 188.308594 C 195.335938 188.375 195.285156 188.4375 195.234375 188.503906 C 195.167969 188.59375 195.101562 188.683594 195.035156 188.773438 C 194.984375 188.839844 194.933594 188.90625 194.882812 188.96875 C 194.777344 189.101562 194.667969 189.238281 194.558594 189.367188 C 198.265625 193.179688 203.1875 196.445312 207.144531 199.667969 C 209.121094 201.285156 211.925781 203.253906 215 201.949219 C 216.347656 201.378906 217.367188 200.382812 218.167969 199.332031 C 221.71875 194.671875 222.238281 188.363281 222.53125 183.117188 C 222.875 177.089844 222.027344 170.96875 219.179688 165.476562 Z M 210.972656 197.878906 C 212.007812 193.964844 211.808594 189.875 210.398438 186.128906 C 208.816406 181.914062 205.777344 178.222656 203.707031 174.167969 C 201.808594 170.449219 200.734375 166.449219 200.25 162.398438 C 199.804688 158.660156 199.222656 154.015625 200.308594 150.28125 C 201.6875 154.0625 201.785156 158.390625 202.792969 162.289062 C 203.804688 166.214844 205.128906 170.085938 207.042969 173.753906 C 209.132812 177.757812 211.9375 181.558594 212.941406 185.863281 C 213.871094 189.847656 213.171875 194.125 210.972656 197.878906 Z M 216.601562 191.273438 C 218.671875 184.9375 217.195312 178.191406 213.648438 172.519531 C 211.789062 169.546875 209.390625 166.835938 207.667969 163.808594 C 206.238281 161.289062 204.425781 157.058594 206.03125 154.296875 C 206.582031 158.082031 208.652344 161.355469 211.148438 164.457031 C 213.691406 167.625 216.554688 170.671875 218.207031 174.234375 C 220.699219 179.640625 220.097656 186.027344 216.601562 191.273438 Z M 216.601562 191.273438 " fill-opacity="1" fill-rule="nonzero"/><g clip-path="url(#8560043a81)"><path fill="#5e453a" d="M 193.191406 169.675781 C 190.808594 164.535156 187.867188 159.308594 188.222656 153.886719 C 188.386719 151.324219 189.292969 148.796875 188.960938 146.230469 C 188.625 143.664062 186.480469 140.90625 183.277344 140.648438 C 180.011719 140.390625 177.53125 142.71875 175.652344 144.816406 C 172.761719 148.042969 169.875 151.269531 166.984375 154.496094 C 164.046875 157.773438 161.09375 161.074219 158.960938 164.742188 C 155.25 171.144531 154.253906 178.546875 155.964844 185.59375 C 156.730469 188.765625 157.183594 191.972656 157.128906 195.183594 C 157.070312 198.660156 157.738281 202.066406 159.996094 205.058594 C 161.757812 207.386719 164.929688 209.410156 168.21875 208.988281 C 170.625 208.671875 172.425781 207.164062 174.042969 205.730469 C 178.925781 201.417969 183.800781 197.105469 188.683594 192.792969 C 191.164062 190.605469 193.691406 188.351562 195.035156 185.585938 C 197.460938 180.566406 195.582031 174.824219 193.191406 169.675781 Z M 162.167969 199.308594 C 163 193.386719 160.421875 187.507812 160.269531 181.546875 C 160.171875 177.613281 161.234375 173.722656 162.800781 170.058594 C 164.953125 165.023438 168.640625 161.136719 169.1875 160.761719 C 169.136719 160.796875 165.132812 168.691406 164.421875 180.265625 C 164.226562 183.492188 164.632812 186.71875 164.550781 189.953125 C 164.464844 193.179688 163.921875 196.480469 162.167969 199.308594 Z M 167.851562 203.582031 C 172.660156 191.355469 169.851562 177.871094 172.023438 165.074219 C 172.65625 161.34375 173.71875 157.675781 175.183594 154.132812 C 175.925781 152.328125 176.777344 150.554688 177.726562 148.824219 C 178.628906 147.1875 179.566406 145.082031 180.960938 143.742188 C 181.160156 145.117188 179.730469 147.523438 179.28125 148.949219 C 178.679688 150.878906 178.140625 152.824219 177.675781 154.78125 C 176.742188 158.699219 176.082031 162.664062 175.707031 166.652344 C 175.109375 172.972656 175.222656 179.34375 174.421875 185.644531 C 173.628906 191.945312 171.847656 198.304688 167.851562 203.582031 Z M 187.644531 186.042969 C 186.605469 188.675781 184.421875 190.851562 182.039062 192.695312 C 179.65625 194.535156 177.015625 196.109375 174.683594 198.007812 C 177.324219 193.296875 182.972656 189.976562 184.261719 184.851562 C 185.261719 180.859375 183.335938 176.820312 182.191406 172.859375 C 181.160156 169.320312 180.777344 165.617188 181.167969 161.96875 C 181.535156 158.539062 182.519531 154.234375 184.972656 151.449219 C 184.640625 154.480469 183.929688 157.394531 183.980469 160.480469 C 184.027344 163.5625 184.480469 166.644531 185.335938 169.636719 C 186.113281 172.355469 187.207031 175.003906 187.863281 177.742188 C 188.507812 180.484375 188.691406 183.398438 187.644531 186.042969 Z M 187.644531 186.042969 " fill-opacity="1" fill-rule="nonzero"/></g><g fill="#5e453a" fill-opacity="1"><g transform="translate(88.854375, 234.505487)"><g><path d="M 10.6875 -19.078125 C 11.945312 -19.078125 13.023438 -18.921875 13.921875 -18.609375 C 14.816406 -18.296875 15.546875 -17.941406 16.109375 -17.546875 C 16.671875 -17.148438 17.082031 -16.796875 17.34375 -16.484375 C 17.601562 -16.179688 17.734375 -16.03125 17.734375 -16.03125 L 17.734375 -14.171875 L 16.890625 -14.171875 L 16.859375 -14.4375 C 16.710938 -15.4375 16.140625 -16.316406 15.140625 -17.078125 C 14.148438 -17.847656 12.859375 -18.234375 11.265625 -18.234375 C 9.703125 -18.234375 8.398438 -17.835938 7.359375 -17.046875 C 6.316406 -16.265625 5.535156 -15.207031 5.015625 -13.875 C 4.503906 -12.539062 4.25 -11.03125 4.25 -9.34375 C 4.25 -7.675781 4.503906 -6.164062 5.015625 -4.8125 C 5.535156 -3.457031 6.316406 -2.382812 7.359375 -1.59375 C 8.398438 -0.8125 9.703125 -0.421875 11.265625 -0.421875 C 12.859375 -0.421875 14.148438 -0.800781 15.140625 -1.5625 C 16.140625 -2.332031 16.710938 -3.21875 16.859375 -4.21875 L 16.890625 -4.515625 L 17.734375 -4.515625 L 17.734375 -2.625 C 17.734375 -2.625 17.601562 -2.472656 17.34375 -2.171875 C 17.082031 -1.878906 16.671875 -1.53125 16.109375 -1.125 C 15.546875 -0.71875 14.816406 -0.363281 13.921875 -0.0625 C 13.023438 0.238281 11.945312 0.390625 10.6875 0.390625 C 8.6875 0.390625 7.019531 -0.046875 5.6875 -0.921875 C 4.351562 -1.796875 3.359375 -2.96875 2.703125 -4.4375 C 2.054688 -5.914062 1.734375 -7.550781 1.734375 -9.34375 C 1.734375 -11.132812 2.054688 -12.765625 2.703125 -14.234375 C 3.359375 -15.710938 4.351562 -16.890625 5.6875 -17.765625 C 7.019531 -18.640625 8.6875 -19.078125 10.6875 -19.078125 Z M 10.6875 -19.078125 "/></g></g></g><g fill="#5e453a" fill-opacity="1"><g transform="translate(106.033673, 234.505487)"><g><path d="M 8.1875 -12.890625 C 7.269531 -12.890625 6.519531 -12.613281 5.9375 -12.0625 C 5.351562 -11.507812 4.921875 -10.757812 4.640625 -9.8125 C 4.359375 -8.863281 4.21875 -7.8125 4.21875 -6.65625 C 4.21875 -5.5 4.359375 -4.453125 4.640625 -3.515625 C 4.921875 -2.578125 5.351562 -1.828125 5.9375 -1.265625 C 6.519531 -0.703125 7.269531 -0.421875 8.1875 -0.421875 C 9.125 -0.421875 9.878906 -0.703125 10.453125 -1.265625 C 11.035156 -1.828125 11.460938 -2.578125 11.734375 -3.515625 C 12.015625 -4.453125 12.15625 -5.5 12.15625 -6.65625 C 12.15625 -7.8125 12.015625 -8.863281 11.734375 -9.8125 C 11.460938 -10.757812 11.035156 -11.507812 10.453125 -12.0625 C 9.878906 -12.613281 9.125 -12.890625 8.1875 -12.890625 Z M 8.1875 -13.734375 C 9.625 -13.734375 10.804688 -13.410156 11.734375 -12.765625 C 12.660156 -12.128906 13.351562 -11.273438 13.8125 -10.203125 C 14.269531 -9.140625 14.5 -7.957031 14.5 -6.65625 C 14.5 -5.351562 14.269531 -4.164062 13.8125 -3.09375 C 13.351562 -2.03125 12.660156 -1.179688 11.734375 -0.546875 C 10.804688 0.078125 9.625 0.390625 8.1875 0.390625 C 6.757812 0.390625 5.582031 0.078125 4.65625 -0.546875 C 3.726562 -1.179688 3.035156 -2.03125 2.578125 -3.09375 C 2.117188 -4.164062 1.890625 -5.351562 1.890625 -6.65625 C 1.890625 -7.957031 2.117188 -9.140625 2.578125 -10.203125 C 3.035156 -11.273438 3.726562 -12.128906 4.65625 -12.765625 C 5.582031 -13.410156 6.757812 -13.734375 8.1875 -13.734375 Z M 8.1875 -13.734375 "/></g></g></g><g fill="#5e453a" fill-opacity="1"><g transform="translate(120.46165, 234.505487)"><g><path d="M 8.21875 -13.734375 C 9.375 -13.734375 10.304688 -13.585938 11.015625 -13.296875 C 11.734375 -13.003906 12.265625 -12.710938 12.609375 -12.421875 C 12.953125 -12.140625 13.125 -12 13.125 -12 L 13.125 -10.109375 L 12.25 -10.109375 L 12.25 -10.296875 C 12.1875 -10.941406 11.878906 -11.535156 11.328125 -12.078125 C 10.773438 -12.617188 9.929688 -12.890625 8.796875 -12.890625 C 7.304688 -12.890625 6.171875 -12.304688 5.390625 -11.140625 C 4.609375 -9.984375 4.21875 -8.488281 4.21875 -6.65625 C 4.21875 -4.84375 4.609375 -3.347656 5.390625 -2.171875 C 6.171875 -1.003906 7.304688 -0.421875 8.796875 -0.421875 C 9.929688 -0.421875 10.773438 -0.695312 11.328125 -1.25 C 11.878906 -1.800781 12.1875 -2.398438 12.25 -3.046875 L 12.25 -3.203125 L 13.125 -3.203125 L 13.125 -1.34375 C 13.125 -1.34375 12.953125 -1.195312 12.609375 -0.90625 C 12.265625 -0.625 11.734375 -0.335938 11.015625 -0.046875 C 10.304688 0.242188 9.375 0.390625 8.21875 0.390625 C 6.8125 0.390625 5.640625 0.078125 4.703125 -0.546875 C 3.765625 -1.179688 3.0625 -2.03125 2.59375 -3.09375 C 2.125 -4.164062 1.890625 -5.351562 1.890625 -6.65625 C 1.890625 -7.957031 2.125 -9.140625 2.59375 -10.203125 C 3.0625 -11.273438 3.765625 -12.128906 4.703125 -12.765625 C 5.640625 -13.410156 6.8125 -13.734375 8.21875 -13.734375 Z M 8.21875 -13.734375 "/></g></g></g><g fill="#5e453a" fill-opacity="1"><g transform="translate(133.48197, 234.505487)"><g><path d="M 8.1875 -12.890625 C 7.269531 -12.890625 6.519531 -12.613281 5.9375 -12.0625 C 5.351562 -11.507812 4.921875 -10.757812 4.640625 -9.8125 C 4.359375 -8.863281 4.21875 -7.8125 4.21875 -6.65625 C 4.21875 -5.5 4.359375 -4.453125 4.640625 -3.515625 C 4.921875 -2.578125 5.351562 -1.828125 5.9375 -1.265625 C 6.519531 -0.703125 7.269531 -0.421875 8.1875 -0.421875 C 9.125 -0.421875 9.878906 -0.703125 10.453125 -1.265625 C 11.035156 -1.828125 11.460938 -2.578125 11.734375 -3.515625 C 12.015625 -4.453125 12.15625 -5.5 12.15625 -6.65625 C 12.15625 -7.8125 12.015625 -8.863281 11.734375 -9.8125 C 11.460938 -10.757812 11.035156 -11.507812 10.453125 -12.0625 C 9.878906 -12.613281 9.125 -12.890625 8.1875 -12.890625 Z M 8.1875 -13.734375 C 9.625 -13.734375 10.804688 -13.410156 11.734375 -12.765625 C 12.660156 -12.128906 13.351562 -11.273438 13.8125 -10.203125 C 14.269531 -9.140625 14.5 -7.957031 14.5 -6.65625 C 14.5 -5.351562 14.269531 -4.164062 13.8125 -3.09375 C 13.351562 -2.03125 12.660156 -1.179688 11.734375 -0.546875 C 10.804688 0.078125 9.625 0.390625 8.1875 0.390625 C 6.757812 0.390625 5.582031 0.078125 4.65625 -0.546875 C 3.726562 -1.179688 3.035156 -2.03125 2.578125 -3.09375 C 2.117188 -4.164062 1.890625 -5.351562 1.890625 -6.65625 C 1.890625 -7.957031 2.117188 -9.140625 2.578125 -10.203125 C 3.035156 -11.273438 3.726562 -12.128906 4.65625 -12.765625 C 5.582031 -13.410156 6.757812 -13.734375 8.1875 -13.734375 Z M 8.1875 -13.734375 "/></g></g></g><g fill="#5e453a" fill-opacity="1"><g transform="translate(147.909948, 234.505487)"><g><path d="M 11.640625 -8 L 11.640625 -9.15625 C 11.640625 -10.300781 11.332031 -11.207031 10.71875 -11.875 C 10.101562 -12.550781 9.113281 -12.890625 7.75 -12.890625 C 6.570312 -12.890625 5.644531 -12.660156 4.96875 -12.203125 C 4.300781 -11.742188 3.925781 -11.144531 3.84375 -10.40625 L 3.8125 -10.109375 L 2.96875 -10.109375 L 2.96875 -11.96875 C 2.96875 -11.96875 3.148438 -12.113281 3.515625 -12.40625 C 3.878906 -12.707031 4.453125 -13.003906 5.234375 -13.296875 C 6.015625 -13.585938 7.03125 -13.734375 8.28125 -13.734375 C 10.207031 -13.734375 11.632812 -13.285156 12.5625 -12.390625 C 13.488281 -11.492188 13.953125 -10.304688 13.953125 -8.828125 L 13.953125 -1.5625 C 13.953125 -1.375 14.03125 -1.203125 14.1875 -1.046875 C 14.351562 -0.898438 14.53125 -0.828125 14.71875 -0.828125 L 15.296875 -0.828125 L 15.296875 0 L 11.640625 0 L 11.640625 -2.015625 C 11.148438 -1.484375 10.457031 -0.945312 9.5625 -0.40625 C 8.664062 0.125 7.578125 0.390625 6.296875 0.390625 C 4.828125 0.390625 3.722656 0.0351562 2.984375 -0.671875 C 2.253906 -1.378906 1.890625 -2.265625 1.890625 -3.328125 C 1.890625 -4.523438 2.242188 -5.457031 2.953125 -6.125 C 3.671875 -6.800781 4.660156 -7.28125 5.921875 -7.5625 C 7.179688 -7.851562 8.640625 -8 10.296875 -8 Z M 11.640625 -7.171875 L 10.296875 -7.171875 C 9.171875 -7.171875 8.148438 -7.0625 7.234375 -6.84375 C 6.316406 -6.632812 5.582031 -6.265625 5.03125 -5.734375 C 4.488281 -5.210938 4.21875 -4.503906 4.21875 -3.609375 C 4.21875 -2.847656 4.472656 -2.207031 4.984375 -1.6875 C 5.503906 -1.175781 6.285156 -0.921875 7.328125 -0.921875 C 8.035156 -0.921875 8.664062 -1.039062 9.21875 -1.28125 C 9.769531 -1.53125 10.253906 -1.820312 10.671875 -2.15625 C 11.085938 -2.488281 11.410156 -2.796875 11.640625 -3.078125 Z M 11.640625 -7.171875 "/></g></g></g><g fill="#5e453a" fill-opacity="1"><g transform="translate(162.600468, 234.505487)"><g/></g></g><g fill="#5e453a" fill-opacity="1"><g transform="translate(167.782719, 234.505487)"><g/></g></g><g fill="#5e453a" fill-opacity="1"><g transform="translate(172.964969, 234.505487)"><g/></g></g><g fill="#5e453a" fill-opacity="1"><g transform="translate(178.14722, 234.505487)"><g/></g></g><g fill="#5e453a" fill-opacity="1"><g transform="translate(183.329471, 234.505487)"><g/></g></g><g fill="#5e453a" fill-opacity="1"><g transform="translate(188.522341, 234.505487)"><g><path d="M 10.6875 -19.078125 C 11.945312 -19.078125 13.023438 -18.921875 13.921875 -18.609375 C 14.816406 -18.296875 15.546875 -17.941406 16.109375 -17.546875 C 16.671875 -17.148438 17.082031 -16.796875 17.34375 -16.484375 C 17.601562 -16.179688 17.734375 -16.03125 17.734375 -16.03125 L 17.734375 -14.171875 L 16.890625 -14.171875 L 16.859375 -14.4375 C 16.710938 -15.4375 16.140625 -16.316406 15.140625 -17.078125 C 14.148438 -17.847656 12.859375 -18.234375 11.265625 -18.234375 C 9.703125 -18.234375 8.398438 -17.835938 7.359375 -17.046875 C 6.316406 -16.265625 5.535156 -15.207031 5.015625 -13.875 C 4.503906 -12.539062 4.25 -11.03125 4.25 -9.34375 C 4.25 -7.675781 4.503906 -6.164062 5.015625 -4.8125 C 5.535156 -3.457031 6.316406 -2.382812 7.359375 -1.59375 C 8.398438 -0.8125 9.703125 -0.421875 11.265625 -0.421875 C 12.859375 -0.421875 14.148438 -0.800781 15.140625 -1.5625 C 16.140625 -2.332031 16.710938 -3.21875 16.859375 -4.21875 L 16.890625 -4.515625 L 17.734375 -4.515625 L 17.734375 -2.625 C 17.734375 -2.625 17.601562 -2.472656 17.34375 -2.171875 C 17.082031 -1.878906 16.671875 -1.53125 16.109375 -1.125 C 15.546875 -0.71875 14.816406 -0.363281 13.921875 -0.0625 C 13.023438 0.238281 11.945312 0.390625 10.6875 0.390625 C 8.6875 0.390625 7.019531 -0.046875 5.6875 -0.921875 C 4.351562 -1.796875 3.359375 -2.96875 2.703125 -4.4375 C 2.054688 -5.914062 1.734375 -7.550781 1.734375 -9.34375 C 1.734375 -11.132812 2.054688 -12.765625 2.703125 -14.234375 C 3.359375 -15.710938 4.351562 -16.890625 5.6875 -17.765625 C 7.019531 -18.640625 8.6875 -19.078125 10.6875 -19.078125 Z M 10.6875 -19.078125 "/></g></g></g><g fill="#5e453a" fill-opacity="1"><g transform="translate(205.701638, 234.505487)"><g><path d="M 11.640625 -8 L 11.640625 -9.15625 C 11.640625 -10.300781 11.332031 -11.207031 10.71875 -11.875 C 10.101562 -12.550781 9.113281 -12.890625 7.75 -12.890625 C 6.570312 -12.890625 5.644531 -12.660156 4.96875 -12.203125 C 4.300781 -11.742188 3.925781 -11.144531 3.84375 -10.40625 L 3.8125 -10.109375 L 2.96875 -10.109375 L 2.96875 -11.96875 C 2.96875 -11.96875 3.148438 -12.113281 3.515625 -12.40625 C 3.878906 -12.707031 4.453125 -13.003906 5.234375 -13.296875 C 6.015625 -13.585938 7.03125 -13.734375 8.28125 -13.734375 C 10.207031 -13.734375 11.632812 -13.285156 12.5625 -12.390625 C 13.488281 -11.492188 13.953125 -10.304688 13.953125 -8.828125 L 13.953125 -1.5625 C 13.953125 -1.375 14.03125 -1.203125 14.1875 -1.046875 C 14.351562 -0.898438 14.53125 -0.828125 14.71875 -0.828125 L 15.296875 -0.828125 L 15.296875 0 L 11.640625 0 L 11.640625 -2.015625 C 11.148438 -1.484375 10.457031 -0.945312 9.5625 -0.40625 C 8.664062 0.125 7.578125 0.390625 6.296875 0.390625 C 4.828125 0.390625 3.722656 0.0351562 2.984375 -0.671875 C 2.253906 -1.378906 1.890625 -2.265625 1.890625 -3.328125 C 1.890625 -4.523438 2.242188 -5.457031 2.953125 -6.125 C 3.671875 -6.800781 4.660156 -7.28125 5.921875 -7.5625 C 7.179688 -7.851562 8.640625 -8 10.296875 -8 Z M 11.640625 -7.171875 L 10.296875 -7.171875 C 9.171875 -7.171875 8.148438 -7.0625 7.234375 -6.84375 C 6.316406 -6.632812 5.582031 -6.265625 5.03125 -5.734375 C 4.488281 -5.210938 4.21875 -4.503906 4.21875 -3.609375 C 4.21875 -2.847656 4.472656 -2.207031 4.984375 -1.6875 C 5.503906 -1.175781 6.285156 -0.921875 7.328125 -0.921875 C 8.035156 -0.921875 8.664062 -1.039062 9.21875 -1.28125 C 9.769531 -1.53125 10.253906 -1.820312 10.671875 -2.15625 C 11.085938 -2.488281 11.410156 -2.796875 11.640625 -3.078125 Z M 11.640625 -7.171875 "/></g></g></g><g fill="#5e453a" fill-opacity="1"><g transform="translate(220.385552, 234.505487)"><g><path d="M 8.953125 -13.734375 C 9.640625 -13.734375 10.171875 -13.648438 10.546875 -13.484375 C 10.921875 -13.328125 11.179688 -13.160156 11.328125 -12.984375 C 11.472656 -12.816406 11.546875 -12.734375 11.546875 -12.734375 L 11.546875 -10.65625 L 10.75 -10.65625 L 10.6875 -10.96875 C 10.644531 -11.394531 10.46875 -11.738281 10.15625 -12 C 9.851562 -12.257812 9.398438 -12.390625 8.796875 -12.390625 C 7.898438 -12.390625 7.125 -12.140625 6.46875 -11.640625 C 5.820312 -11.148438 5.351562 -10.546875 5.0625 -9.828125 L 5.0625 -1.5625 C 5.0625 -1.375 5.128906 -1.203125 5.265625 -1.046875 C 5.398438 -0.898438 5.566406 -0.828125 5.765625 -0.828125 L 6.375 -0.828125 L 6.375 0 L 1.375 0 L 1.375 -0.828125 L 1.953125 -0.828125 C 2.140625 -0.828125 2.304688 -0.898438 2.453125 -1.046875 C 2.609375 -1.203125 2.6875 -1.375 2.6875 -1.5625 L 2.6875 -11.75 C 2.6875 -11.9375 2.609375 -12.109375 2.453125 -12.265625 C 2.304688 -12.429688 2.140625 -12.515625 1.953125 -12.515625 L 1.375 -12.515625 L 1.375 -13.34375 L 5.0625 -13.34375 L 5.0625 -11.421875 C 5.457031 -12.109375 5.976562 -12.664062 6.625 -13.09375 C 7.28125 -13.519531 8.054688 -13.734375 8.953125 -13.734375 Z M 8.953125 -13.734375 "/></g></g></g><g fill="#5e453a" fill-opacity="1"><g transform="translate(230.334632, 234.505487)"><g><path d="M 1.375 -21.34375 L 5.0625 -21.34375 L 5.0625 -1.5625 C 5.0625 -1.375 5.128906 -1.203125 5.265625 -1.046875 C 5.398438 -0.898438 5.566406 -0.828125 5.765625 -0.828125 L 6.375 -0.828125 L 6.375 0 L 1.375 0 L 1.375 -0.828125 L 1.953125 -0.828125 C 2.140625 -0.828125 2.304688 -0.898438 2.453125 -1.046875 C 2.609375 -1.203125 2.6875 -1.375 2.6875 -1.5625 L 2.6875 -19.75 C 2.6875 -19.9375 2.609375 -20.109375 2.453125 -20.265625 C 2.304688 -20.429688 2.140625 -20.515625 1.953125 -20.515625 L 1.375 -20.515625 Z M 1.375 -21.34375 "/></g></g></g><g fill="#5e453a" fill-opacity="1"><g transform="translate(236.060752, 234.505487)"><g><path d="M 13.984375 -2.625 C 13.984375 -2.625 13.875 -2.472656 13.65625 -2.171875 C 13.445312 -1.878906 13.113281 -1.53125 12.65625 -1.125 C 12.195312 -0.71875 11.601562 -0.363281 10.875 -0.0625 C 10.15625 0.238281 9.269531 0.390625 8.21875 0.390625 C 6.8125 0.390625 5.640625 0.0820312 4.703125 -0.53125 C 3.765625 -1.15625 3.0625 -2 2.59375 -3.0625 C 2.125 -4.132812 1.890625 -5.332031 1.890625 -6.65625 C 1.890625 -7.957031 2.117188 -9.140625 2.578125 -10.203125 C 3.035156 -11.273438 3.734375 -12.128906 4.671875 -12.765625 C 5.609375 -13.410156 6.789062 -13.734375 8.21875 -13.734375 C 10.125 -13.734375 11.644531 -13.132812 12.78125 -11.9375 C 13.925781 -10.738281 14.5 -9 14.5 -6.71875 L 14.5 -6.265625 L 4.25 -6.265625 C 4.363281 -4.648438 4.816406 -3.351562 5.609375 -2.375 C 6.410156 -1.40625 7.523438 -0.921875 8.953125 -0.921875 C 9.722656 -0.921875 10.382812 -1.03125 10.9375 -1.25 C 11.5 -1.476562 11.960938 -1.742188 12.328125 -2.046875 C 12.703125 -2.347656 12.972656 -2.609375 13.140625 -2.828125 C 13.316406 -3.054688 13.40625 -3.171875 13.40625 -3.171875 Z M 12.15625 -7.109375 C 12.113281 -8.984375 11.738281 -10.414062 11.03125 -11.40625 C 10.332031 -12.394531 9.394531 -12.890625 8.21875 -12.890625 C 6.914062 -12.890625 5.925781 -12.359375 5.25 -11.296875 C 4.582031 -10.234375 4.238281 -8.835938 4.21875 -7.109375 Z M 12.15625 -7.109375 "/></g></g></g><g fill="#5e453a" fill-opacity="1"><g transform="translate(250.48873, 234.505487)"><g><path d="M 2.234375 -20.09375 C 2.234375 -20.539062 2.390625 -20.925781 2.703125 -21.25 C 3.015625 -21.570312 3.394531 -21.734375 3.84375 -21.734375 C 4.289062 -21.734375 4.671875 -21.570312 4.984375 -21.25 C 5.304688 -20.925781 5.46875 -20.539062 5.46875 -20.09375 C 5.46875 -19.644531 5.304688 -19.265625 4.984375 -18.953125 C 4.671875 -18.648438 4.289062 -18.5 3.84375 -18.5 C 3.394531 -18.5 3.015625 -18.648438 2.703125 -18.953125 C 2.390625 -19.265625 2.234375 -19.644531 2.234375 -20.09375 Z M 1.375 -13.34375 L 5.0625 -13.34375 L 5.0625 -1.5625 C 5.0625 -1.375 5.128906 -1.203125 5.265625 -1.046875 C 5.398438 -0.898438 5.566406 -0.828125 5.765625 -0.828125 L 6.375 -0.828125 L 6.375 0 L 1.375 0 L 1.375 -0.828125 L 1.953125 -0.828125 C 2.140625 -0.828125 2.304688 -0.898438 2.453125 -1.046875 C 2.609375 -1.203125 2.6875 -1.375 2.6875 -1.5625 L 2.6875 -11.75 C 2.6875 -11.9375 2.609375 -12.109375 2.453125 -12.265625 C 2.304688 -12.429688 2.140625 -12.515625 1.953125 -12.515625 L 1.375 -12.515625 Z M 1.375 -13.34375 "/></g></g></g><g fill="#5e453a" fill-opacity="1"><g transform="translate(256.214849, 234.505487)"><g><path d="M 12.546875 -16 L 13.828125 -16 C 13.828125 -15.289062 13.695312 -14.691406 13.4375 -14.203125 C 13.1875 -13.710938 12.894531 -13.320312 12.5625 -13.03125 C 12.226562 -12.75 11.921875 -12.535156 11.640625 -12.390625 C 12.265625 -11.867188 12.71875 -11.222656 13 -10.453125 C 13.289062 -9.691406 13.4375 -8.875 13.4375 -8 C 13.4375 -6.957031 13.222656 -6 12.796875 -5.125 C 12.367188 -4.25 11.726562 -3.550781 10.875 -3.03125 C 10.019531 -2.519531 8.941406 -2.265625 7.640625 -2.265625 C 6.796875 -2.265625 6.046875 -2.375 5.390625 -2.59375 C 4.742188 -2.820312 4.1875 -3.140625 3.71875 -3.546875 C 3.519531 -3.398438 3.335938 -3.195312 3.171875 -2.9375 C 3.015625 -2.6875 2.9375 -2.367188 2.9375 -1.984375 C 2.9375 -1.390625 3.160156 -0.894531 3.609375 -0.5 C 4.054688 -0.101562 4.707031 0.09375 5.5625 0.09375 L 8.921875 0.09375 C 10.546875 0.09375 11.789062 0.472656 12.65625 1.234375 C 13.519531 1.992188 13.953125 3 13.953125 4.25 C 13.953125 5.550781 13.382812 6.566406 12.25 7.296875 C 11.125 8.023438 9.523438 8.390625 7.453125 8.390625 C 5.390625 8.390625 3.859375 8.066406 2.859375 7.421875 C 1.867188 6.785156 1.375 5.941406 1.375 4.890625 C 1.375 4.085938 1.578125 3.441406 1.984375 2.953125 C 2.390625 2.472656 2.828125 2.109375 3.296875 1.859375 C 2.179688 1.210938 1.625 0.195312 1.625 -1.1875 C 1.625 -1.976562 1.789062 -2.613281 2.125 -3.09375 C 2.457031 -3.570312 2.785156 -3.9375 3.109375 -4.1875 C 2.703125 -4.675781 2.394531 -5.25 2.1875 -5.90625 C 1.988281 -6.570312 1.890625 -7.269531 1.890625 -8 C 1.890625 -9.0625 2.097656 -10.023438 2.515625 -10.890625 C 2.929688 -11.753906 3.566406 -12.441406 4.421875 -12.953125 C 5.273438 -13.472656 6.347656 -13.734375 7.640625 -13.734375 C 9.035156 -13.734375 10.179688 -13.429688 11.078125 -12.828125 C 11.367188 -13.046875 11.6875 -13.40625 12.03125 -13.90625 C 12.375 -14.40625 12.546875 -15.101562 12.546875 -16 Z M 7.640625 -12.890625 C 6.429688 -12.890625 5.554688 -12.414062 5.015625 -11.46875 C 4.484375 -10.519531 4.21875 -9.363281 4.21875 -8 C 4.21875 -6.632812 4.484375 -5.476562 5.015625 -4.53125 C 5.554688 -3.582031 6.429688 -3.109375 7.640625 -3.109375 C 8.859375 -3.109375 9.738281 -3.582031 10.28125 -4.53125 C 10.832031 -5.476562 11.109375 -6.632812 11.109375 -8 C 11.109375 -9.363281 10.832031 -10.519531 10.28125 -11.46875 C 9.738281 -12.414062 8.859375 -12.890625 7.640625 -12.890625 Z M 4.703125 2.34375 C 4.359375 2.550781 4.019531 2.859375 3.6875 3.265625 C 3.363281 3.671875 3.203125 4.210938 3.203125 4.890625 C 3.203125 5.742188 3.597656 6.40625 4.390625 6.875 C 5.191406 7.34375 6.300781 7.578125 7.71875 7.578125 C 9.125 7.578125 10.207031 7.328125 10.96875 6.828125 C 11.738281 6.328125 12.125 5.679688 12.125 4.890625 C 12.125 4.171875 11.859375 3.582031 11.328125 3.125 C 10.796875 2.664062 10.015625 2.4375 8.984375 2.4375 L 5.890625 2.4375 C 5.484375 2.4375 5.085938 2.40625 4.703125 2.34375 Z M 4.703125 2.34375 "/></g></g></g><g fill="#5e453a" fill-opacity="1"><g transform="translate(269.23517, 234.505487)"><g><path d="M 11.90625 0 L 11.90625 -8.921875 C 11.90625 -9.929688 11.578125 -10.757812 10.921875 -11.40625 C 10.273438 -12.0625 9.453125 -12.390625 8.453125 -12.390625 C 7.660156 -12.390625 6.96875 -12.140625 6.375 -11.640625 C 5.789062 -11.148438 5.351562 -10.488281 5.0625 -9.65625 L 5.0625 -1.5625 C 5.0625 -1.375 5.128906 -1.203125 5.265625 -1.046875 C 5.398438 -0.898438 5.566406 -0.828125 5.765625 -0.828125 L 6.375 -0.828125 L 6.375 0 L 1.375 0 L 1.375 -0.828125 L 1.953125 -0.828125 C 2.140625 -0.828125 2.304688 -0.898438 2.453125 -1.046875 C 2.609375 -1.203125 2.6875 -1.375 2.6875 -1.5625 L 2.6875 -19.75 C 2.6875 -19.9375 2.609375 -20.109375 2.453125 -20.265625 C 2.304688 -20.429688 2.140625 -20.515625 1.953125 -20.515625 L 1.375 -20.515625 L 1.375 -21.34375 L 5.0625 -21.34375 L 5.0625 -11.421875 C 5.488281 -12.128906 6.050781 -12.691406 6.75 -13.109375 C 7.457031 -13.523438 8.300781 -13.734375 9.28125 -13.734375 C 10.789062 -13.734375 11.992188 -13.296875 12.890625 -12.421875 C 13.785156 -11.546875 14.234375 -10.378906 14.234375 -8.921875 L 14.234375 -1.5625 C 14.234375 -1.375 14.304688 -1.203125 14.453125 -1.046875 C 14.609375 -0.898438 14.78125 -0.828125 14.96875 -0.828125 L 15.546875 -0.828125 L 15.546875 0 Z M 11.90625 0 "/></g></g></g><g fill="#5e453a" fill-opacity="1"><g transform="translate(168.578314, 235.781836)"><g><path d="M 5.609375 -8.515625 C 6.390625 -8.515625 7.035156 -8.316406 7.546875 -7.921875 C 8.054688 -7.523438 8.429688 -6.992188 8.671875 -6.328125 C 8.921875 -5.671875 9.046875 -4.9375 9.046875 -4.125 C 9.046875 -3.320312 8.921875 -2.585938 8.671875 -1.921875 C 8.429688 -1.265625 8.054688 -0.738281 7.546875 -0.34375 C 7.035156 0.0390625 6.390625 0.234375 5.609375 0.234375 C 5.085938 0.234375 4.597656 0.125 4.140625 -0.09375 C 3.679688 -0.320312 3.304688 -0.65625 3.015625 -1.09375 L 3.015625 0 L 0.75 0 L 0.75 -0.515625 L 1.109375 -0.515625 C 1.234375 -0.515625 1.335938 -0.5625 1.421875 -0.65625 C 1.515625 -0.75 1.5625 -0.851562 1.5625 -0.96875 L 1.5625 -12.265625 C 1.5625 -12.378906 1.515625 -12.484375 1.421875 -12.578125 C 1.335938 -12.671875 1.234375 -12.71875 1.109375 -12.71875 L 0.75 -12.71875 L 0.75 -13.234375 L 3.015625 -13.234375 L 3.015625 -7.1875 C 3.304688 -7.625 3.679688 -7.953125 4.140625 -8.171875 C 4.597656 -8.398438 5.085938 -8.515625 5.609375 -8.515625 Z M 3.015625 -2.140625 C 3.191406 -1.648438 3.46875 -1.265625 3.84375 -0.984375 C 4.226562 -0.710938 4.660156 -0.578125 5.140625 -0.578125 C 5.722656 -0.578125 6.191406 -0.734375 6.546875 -1.046875 C 6.898438 -1.367188 7.160156 -1.800781 7.328125 -2.34375 C 7.503906 -2.882812 7.59375 -3.476562 7.59375 -4.125 C 7.59375 -4.789062 7.503906 -5.390625 7.328125 -5.921875 C 7.160156 -6.460938 6.898438 -6.890625 6.546875 -7.203125 C 6.191406 -7.515625 5.722656 -7.671875 5.140625 -7.671875 C 4.660156 -7.671875 4.226562 -7.535156 3.84375 -7.265625 C 3.46875 -6.992188 3.191406 -6.613281 3.015625 -6.125 Z M 3.015625 -2.140625 "/></g></g></g><g fill="#5e453a" fill-opacity="1"><g transform="translate(177.485571, 235.781836)"><g><path d="M 0.15625 -8.28125 L 2.921875 -8.28125 L 2.921875 -7.765625 L 2.59375 -7.765625 C 2.539062 -7.765625 2.5 -7.738281 2.46875 -7.6875 C 2.445312 -7.644531 2.441406 -7.585938 2.453125 -7.515625 L 4.9375 -1.53125 L 7.4375 -7.515625 C 7.46875 -7.585938 7.460938 -7.644531 7.421875 -7.6875 C 7.378906 -7.738281 7.332031 -7.765625 7.28125 -7.765625 L 6.953125 -7.765625 L 6.953125 -8.28125 L 8.8125 -8.28125 L 8.8125 -7.765625 L 8.65625 -7.765625 C 8.269531 -7.765625 8.003906 -7.59375 7.859375 -7.25 L 3.390625 3.359375 C 3.054688 4.054688 2.75 4.535156 2.46875 4.796875 C 2.195312 5.066406 1.847656 5.203125 1.421875 5.203125 C 1.066406 5.203125 0.765625 5.085938 0.515625 4.859375 C 0.273438 4.640625 0.15625 4.4375 0.15625 4.25 L 0.15625 2.9375 L 0.71875 2.9375 L 0.734375 3.09375 C 0.765625 3.382812 0.859375 3.601562 1.015625 3.75 C 1.179688 3.90625 1.382812 3.984375 1.625 3.984375 C 1.96875 3.984375 2.253906 3.878906 2.484375 3.671875 C 2.722656 3.460938 2.921875 3.175781 3.078125 2.8125 L 4.140625 0.171875 L 0.9375 -7.34375 C 0.800781 -7.625 0.59375 -7.765625 0.3125 -7.765625 L 0.15625 -7.765625 Z M 0.15625 -8.28125 "/></g></g></g></svg>